<mxfile host="app.diagrams.net" modified="2022-08-01T11:08:05.788Z" agent="5.0 (Macintosh; Intel Mac OS X 10_15_7) AppleWebKit/537.36 (KHTML, like Gecko) Chrome/103.0.0.0 Safari/537.36" etag="oaNaHZX0TCfgs4tMUr5V" version="20.1.3" type="github">
  <diagram id="m65YbvdDa1lrMX-1JaFE" name="第 1 页">
    <mxGraphModel dx="2037" dy="1019" grid="1" gridSize="10" guides="1" tooltips="1" connect="1" arrows="1" fold="1" page="1" pageScale="1" pageWidth="3300" pageHeight="4681" math="0" shadow="0">
      <root>
        <mxCell id="0" />
        <mxCell id="1" parent="0" />
        <mxCell id="04_Secdxe5MrCqDxStES-1" value="&lt;font style=&quot;font-size: 26px;&quot;&gt;S0 &lt;br&gt;(leader)&lt;/font&gt;" style="text;html=1;strokeColor=none;fillColor=none;align=center;verticalAlign=middle;whiteSpace=wrap;rounded=0;" vertex="1" parent="1">
          <mxGeometry x="180" y="390" width="160" height="30" as="geometry" />
        </mxCell>
        <mxCell id="04_Secdxe5MrCqDxStES-2" value="&lt;font style=&quot;font-size: 26px;&quot;&gt;S3&lt;/font&gt;" style="text;html=1;strokeColor=none;fillColor=none;align=center;verticalAlign=middle;whiteSpace=wrap;rounded=0;" vertex="1" parent="1">
          <mxGeometry x="180" y="810" width="160" height="30" as="geometry" />
        </mxCell>
        <mxCell id="04_Secdxe5MrCqDxStES-3" value="&lt;font style=&quot;font-size: 26px;&quot;&gt;S1&lt;/font&gt;" style="text;html=1;strokeColor=none;fillColor=none;align=center;verticalAlign=middle;whiteSpace=wrap;rounded=0;" vertex="1" parent="1">
          <mxGeometry x="180" y="530" width="160" height="30" as="geometry" />
        </mxCell>
        <mxCell id="04_Secdxe5MrCqDxStES-4" value="&lt;font style=&quot;font-size: 26px;&quot;&gt;S4&lt;/font&gt;" style="text;html=1;strokeColor=none;fillColor=none;align=center;verticalAlign=middle;whiteSpace=wrap;rounded=0;" vertex="1" parent="1">
          <mxGeometry x="180" y="950" width="160" height="30" as="geometry" />
        </mxCell>
        <mxCell id="04_Secdxe5MrCqDxStES-5" value="&lt;font style=&quot;font-size: 26px;&quot;&gt;S2&lt;/font&gt;" style="text;html=1;strokeColor=none;fillColor=none;align=center;verticalAlign=middle;whiteSpace=wrap;rounded=0;" vertex="1" parent="1">
          <mxGeometry x="180" y="670" width="160" height="30" as="geometry" />
        </mxCell>
        <mxCell id="04_Secdxe5MrCqDxStES-6" value="" style="rounded=0;whiteSpace=wrap;html=1;fontSize=20;fillColor=#FFE6CC;strokeColor=#d79b00;fillStyle=auto;" vertex="1" parent="1">
          <mxGeometry x="360" y="340" width="20" height="90" as="geometry" />
        </mxCell>
        <mxCell id="04_Secdxe5MrCqDxStES-7" value="" style="rounded=0;whiteSpace=wrap;html=1;fontSize=20;fillColor=#dae8fc;strokeColor=#6c8ebf;fillStyle=auto;" vertex="1" parent="1">
          <mxGeometry x="390" y="340" width="20" height="90" as="geometry" />
        </mxCell>
        <mxCell id="04_Secdxe5MrCqDxStES-8" value="" style="rounded=0;whiteSpace=wrap;html=1;fontSize=20;fillColor=#d5e8d4;strokeColor=#82b366;fillStyle=auto;" vertex="1" parent="1">
          <mxGeometry x="420" y="340" width="20" height="90" as="geometry" />
        </mxCell>
        <mxCell id="04_Secdxe5MrCqDxStES-9" value="" style="rounded=0;whiteSpace=wrap;html=1;fontSize=20;fillColor=#e1d5e7;strokeColor=#9673a6;fillStyle=auto;" vertex="1" parent="1">
          <mxGeometry x="450" y="340" width="20" height="90" as="geometry" />
        </mxCell>
        <mxCell id="04_Secdxe5MrCqDxStES-10" value="" style="rounded=0;whiteSpace=wrap;html=1;fontSize=20;fillColor=#fff2cc;strokeColor=#d6b656;fillStyle=auto;" vertex="1" parent="1">
          <mxGeometry x="480" y="340" width="20" height="90" as="geometry" />
        </mxCell>
        <mxCell id="04_Secdxe5MrCqDxStES-11" value="(k=3, m=2)" style="text;html=1;strokeColor=none;fillColor=none;align=center;verticalAlign=middle;whiteSpace=wrap;rounded=0;fillStyle=auto;fontSize=20;" vertex="1" parent="1">
          <mxGeometry x="360" y="450" width="130" height="30" as="geometry" />
        </mxCell>
        <mxCell id="04_Secdxe5MrCqDxStES-12" value="" style="rounded=0;whiteSpace=wrap;html=1;fontSize=20;fillColor=#dae8fc;strokeColor=#6c8ebf;fillStyle=auto;" vertex="1" parent="1">
          <mxGeometry x="420" y="500" width="20" height="90" as="geometry" />
        </mxCell>
        <mxCell id="04_Secdxe5MrCqDxStES-13" value="" style="rounded=0;whiteSpace=wrap;html=1;fontSize=20;fillColor=#d5e8d4;strokeColor=#82b366;fillStyle=auto;" vertex="1" parent="1">
          <mxGeometry x="420" y="640" width="20" height="90" as="geometry" />
        </mxCell>
        <mxCell id="04_Secdxe5MrCqDxStES-15" value="fragment1" style="text;html=1;strokeColor=none;fillColor=none;align=center;verticalAlign=middle;whiteSpace=wrap;rounded=0;fillStyle=auto;fontSize=20;" vertex="1" parent="1">
          <mxGeometry x="365" y="590" width="130" height="30" as="geometry" />
        </mxCell>
        <mxCell id="04_Secdxe5MrCqDxStES-16" value="fragment2" style="text;html=1;strokeColor=none;fillColor=none;align=center;verticalAlign=middle;whiteSpace=wrap;rounded=0;fillStyle=auto;fontSize=20;" vertex="1" parent="1">
          <mxGeometry x="365" y="730" width="130" height="30" as="geometry" />
        </mxCell>
        <mxCell id="04_Secdxe5MrCqDxStES-18" value="" style="curved=1;endArrow=classic;html=1;rounded=0;fontSize=26;exitX=0.954;exitY=0.457;exitDx=0;exitDy=0;exitPerimeter=0;entryX=1.031;entryY=0.56;entryDx=0;entryDy=0;entryPerimeter=0;" edge="1" parent="1" source="04_Secdxe5MrCqDxStES-10" target="04_Secdxe5MrCqDxStES-12">
          <mxGeometry width="50" height="50" relative="1" as="geometry">
            <mxPoint x="660" y="560" as="sourcePoint" />
            <mxPoint x="710" y="510" as="targetPoint" />
            <Array as="points">
              <mxPoint x="630" y="400" />
            </Array>
          </mxGeometry>
        </mxCell>
        <mxCell id="04_Secdxe5MrCqDxStES-19" value="" style="curved=1;endArrow=classic;html=1;rounded=0;fontSize=26;" edge="1" parent="1" target="04_Secdxe5MrCqDxStES-13">
          <mxGeometry width="50" height="50" relative="1" as="geometry">
            <mxPoint x="500" y="380" as="sourcePoint" />
            <mxPoint x="450.62000000000035" y="560.3999999999999" as="targetPoint" />
            <Array as="points">
              <mxPoint x="640" y="410" />
            </Array>
          </mxGeometry>
        </mxCell>
        <mxCell id="04_Secdxe5MrCqDxStES-21" value="" style="verticalLabelPosition=bottom;verticalAlign=top;html=1;shape=mxgraph.basic.8_point_star;fillStyle=auto;fontSize=26;fillColor=#FFE6CC;" vertex="1" parent="1">
          <mxGeometry x="392.5" y="945" width="75" height="40" as="geometry" />
        </mxCell>
        <mxCell id="04_Secdxe5MrCqDxStES-22" value="" style="rounded=0;whiteSpace=wrap;html=1;fontSize=20;fillColor=#fa6800;strokeColor=#C73500;fillStyle=hatch;fontColor=#000000;" vertex="1" parent="1">
          <mxGeometry x="710" y="340" width="20" height="90" as="geometry" />
        </mxCell>
        <mxCell id="04_Secdxe5MrCqDxStES-23" value="" style="rounded=0;whiteSpace=wrap;html=1;fontSize=20;fillColor=#0050ef;strokeColor=#001DBC;fillStyle=hatch;fontColor=#ffffff;" vertex="1" parent="1">
          <mxGeometry x="740" y="340" width="20" height="90" as="geometry" />
        </mxCell>
        <mxCell id="04_Secdxe5MrCqDxStES-24" value="" style="rounded=0;whiteSpace=wrap;html=1;fontSize=20;fillColor=#008a00;strokeColor=#005700;fillStyle=hatch;fontColor=#ffffff;" vertex="1" parent="1">
          <mxGeometry x="770" y="340" width="20" height="90" as="geometry" />
        </mxCell>
        <mxCell id="04_Secdxe5MrCqDxStES-25" value="" style="rounded=0;whiteSpace=wrap;html=1;fontSize=20;fillColor=#6a00ff;strokeColor=#3700CC;fillStyle=hatch;fontColor=#ffffff;" vertex="1" parent="1">
          <mxGeometry x="800" y="340" width="20" height="90" as="geometry" />
        </mxCell>
        <mxCell id="04_Secdxe5MrCqDxStES-26" value="(k=2, m=2)" style="text;html=1;strokeColor=none;fillColor=none;align=center;verticalAlign=middle;whiteSpace=wrap;rounded=0;fillStyle=auto;fontSize=20;" vertex="1" parent="1">
          <mxGeometry x="700" y="450" width="130" height="30" as="geometry" />
        </mxCell>
        <mxCell id="04_Secdxe5MrCqDxStES-27" value="fragment1" style="text;html=1;strokeColor=none;fillColor=none;align=center;verticalAlign=middle;whiteSpace=wrap;rounded=0;fillStyle=auto;fontSize=20;" vertex="1" parent="1">
          <mxGeometry x="712.5" y="590" width="130" height="30" as="geometry" />
        </mxCell>
        <mxCell id="04_Secdxe5MrCqDxStES-28" value="re-encoding" style="text;html=1;strokeColor=none;fillColor=none;align=center;verticalAlign=middle;whiteSpace=wrap;rounded=0;fillStyle=hatch;fontSize=26;" vertex="1" parent="1">
          <mxGeometry x="682.5" y="290" width="165" height="30" as="geometry" />
        </mxCell>
        <mxCell id="04_Secdxe5MrCqDxStES-29" value="" style="rounded=0;whiteSpace=wrap;html=1;fontSize=20;fillColor=#008a00;strokeColor=#005700;fillStyle=hatch;fontColor=#ffffff;" vertex="1" parent="1">
          <mxGeometry x="805" y="640" width="20" height="90" as="geometry" />
        </mxCell>
        <mxCell id="04_Secdxe5MrCqDxStES-30" value="fragment2" style="text;html=1;strokeColor=none;fillColor=none;align=center;verticalAlign=middle;whiteSpace=wrap;rounded=0;fillStyle=auto;fontSize=20;" vertex="1" parent="1">
          <mxGeometry x="705" y="730" width="135" height="30" as="geometry" />
        </mxCell>
        <mxCell id="04_Secdxe5MrCqDxStES-33" value="initial-encoding" style="text;html=1;strokeColor=none;fillColor=none;align=center;verticalAlign=middle;whiteSpace=wrap;rounded=0;fillStyle=hatch;fontSize=26;" vertex="1" parent="1">
          <mxGeometry x="335" y="290" width="190" height="30" as="geometry" />
        </mxCell>
        <mxCell id="04_Secdxe5MrCqDxStES-34" value="" style="rounded=0;whiteSpace=wrap;html=1;fontSize=20;fillColor=#dae8fc;strokeColor=#6c8ebf;fillStyle=auto;" vertex="1" parent="1">
          <mxGeometry x="717.5" y="500" width="20" height="90" as="geometry" />
        </mxCell>
        <mxCell id="04_Secdxe5MrCqDxStES-35" value="" style="rounded=0;whiteSpace=wrap;html=1;fontSize=20;fillColor=#d5e8d4;strokeColor=#82b366;fillStyle=auto;" vertex="1" parent="1">
          <mxGeometry x="717.5" y="640" width="20" height="90" as="geometry" />
        </mxCell>
        <mxCell id="04_Secdxe5MrCqDxStES-36" value="" style="shape=singleArrow;direction=north;whiteSpace=wrap;html=1;fillStyle=auto;fontSize=26;fillColor=#fa6800;rotation=89;fontColor=#000000;strokeColor=#C73500;" vertex="1" parent="1">
          <mxGeometry x="760" y="663.86" width="20" height="42.28" as="geometry" />
        </mxCell>
        <mxCell id="04_Secdxe5MrCqDxStES-37" value="" style="curved=1;endArrow=classic;html=1;rounded=0;fontSize=26;exitX=0.954;exitY=0.457;exitDx=0;exitDy=0;exitPerimeter=0;entryX=1;entryY=0.5;entryDx=0;entryDy=0;" edge="1" parent="1" target="04_Secdxe5MrCqDxStES-45">
          <mxGeometry width="50" height="50" relative="1" as="geometry">
            <mxPoint x="822.3200000000006" y="390" as="sourcePoint" />
            <mxPoint x="850" y="540" as="targetPoint" />
            <Array as="points">
              <mxPoint x="953.24" y="408.87" />
            </Array>
          </mxGeometry>
        </mxCell>
        <mxCell id="04_Secdxe5MrCqDxStES-38" value="" style="curved=1;endArrow=classic;html=1;rounded=0;fontSize=26;entryX=0.973;entryY=0.594;entryDx=0;entryDy=0;entryPerimeter=0;" edge="1" parent="1" target="04_Secdxe5MrCqDxStES-29">
          <mxGeometry width="50" height="50" relative="1" as="geometry">
            <mxPoint x="820" y="390" as="sourcePoint" />
            <mxPoint x="834.46" y="558.8699999999999" as="targetPoint" />
            <Array as="points">
              <mxPoint x="963.24" y="418.87" />
            </Array>
          </mxGeometry>
        </mxCell>
        <mxCell id="04_Secdxe5MrCqDxStES-43" value="" style="curved=1;endArrow=classic;html=1;rounded=0;fontSize=26;" edge="1" parent="1">
          <mxGeometry width="50" height="50" relative="1" as="geometry">
            <mxPoint x="500" y="380" as="sourcePoint" />
            <mxPoint x="490" y="840" as="targetPoint" />
            <Array as="points">
              <mxPoint x="640" y="420" />
            </Array>
          </mxGeometry>
        </mxCell>
        <mxCell id="04_Secdxe5MrCqDxStES-44" value="&lt;font style=&quot;font-size: 20px;&quot;&gt;Message not Arrive&lt;/font&gt;" style="text;html=1;strokeColor=none;fillColor=none;align=center;verticalAlign=middle;whiteSpace=wrap;rounded=0;" vertex="1" parent="1">
          <mxGeometry x="360" y="820" width="140" height="30" as="geometry" />
        </mxCell>
        <mxCell id="04_Secdxe5MrCqDxStES-45" value="" style="rounded=0;whiteSpace=wrap;html=1;fontSize=20;fillColor=#0050ef;strokeColor=#001DBC;fillStyle=hatch;fontColor=#ffffff;" vertex="1" parent="1">
          <mxGeometry x="805" y="500" width="20" height="90" as="geometry" />
        </mxCell>
        <mxCell id="04_Secdxe5MrCqDxStES-46" value="" style="shape=singleArrow;direction=north;whiteSpace=wrap;html=1;fillStyle=auto;fontSize=26;fillColor=#fa6800;rotation=89;fontColor=#000000;strokeColor=#C73500;" vertex="1" parent="1">
          <mxGeometry x="760" y="523.86" width="20" height="42.28" as="geometry" />
        </mxCell>
        <mxCell id="04_Secdxe5MrCqDxStES-47" value="" style="curved=1;endArrow=classic;html=1;rounded=0;fontSize=26;" edge="1" parent="1">
          <mxGeometry width="50" height="50" relative="1" as="geometry">
            <mxPoint x="820" y="390" as="sourcePoint" />
            <mxPoint x="830" y="790" as="targetPoint" />
            <Array as="points">
              <mxPoint x="963.24" y="418.87" />
            </Array>
          </mxGeometry>
        </mxCell>
        <mxCell id="04_Secdxe5MrCqDxStES-48" value="" style="curved=1;endArrow=classic;html=1;rounded=0;fontSize=26;exitX=1;exitY=0.5;exitDx=0;exitDy=0;" edge="1" parent="1" source="04_Secdxe5MrCqDxStES-25">
          <mxGeometry width="50" height="50" relative="1" as="geometry">
            <mxPoint x="830" y="400" as="sourcePoint" />
            <mxPoint x="830" y="850" as="targetPoint" />
            <Array as="points">
              <mxPoint x="973.24" y="428.87" />
            </Array>
          </mxGeometry>
        </mxCell>
        <mxCell id="04_Secdxe5MrCqDxStES-49" value="" style="rounded=0;whiteSpace=wrap;html=1;fontSize=20;fillColor=#6a00ff;strokeColor=#3700CC;fillStyle=hatch;fontColor=#ffffff;" vertex="1" parent="1">
          <mxGeometry x="770" y="780" width="20" height="90" as="geometry" />
        </mxCell>
        <mxCell id="04_Secdxe5MrCqDxStES-50" value="fragment3" style="text;html=1;strokeColor=none;fillColor=none;align=center;verticalAlign=middle;whiteSpace=wrap;rounded=0;fillStyle=auto;fontSize=20;" vertex="1" parent="1">
          <mxGeometry x="710" y="870" width="135" height="30" as="geometry" />
        </mxCell>
        <mxCell id="04_Secdxe5MrCqDxStES-52" value="message 2 arrives first" style="text;html=1;strokeColor=none;fillColor=none;align=center;verticalAlign=middle;whiteSpace=wrap;rounded=0;fontSize=20;" vertex="1" parent="1">
          <mxGeometry x="830" y="820" width="132.5" height="30" as="geometry" />
        </mxCell>
        <mxCell id="04_Secdxe5MrCqDxStES-54" value="wait-response" style="text;html=1;strokeColor=none;fillColor=none;align=center;verticalAlign=middle;whiteSpace=wrap;rounded=0;fillStyle=hatch;fontSize=26;" vertex="1" parent="1">
          <mxGeometry x="1000" y="290" width="165" height="30" as="geometry" />
        </mxCell>
        <mxCell id="04_Secdxe5MrCqDxStES-75" value="" style="rounded=0;whiteSpace=wrap;html=1;fontSize=20;fillColor=#fa6800;strokeColor=#C73500;fillStyle=hatch;fontColor=#000000;" vertex="1" parent="1">
          <mxGeometry x="1030" y="330" width="20" height="90" as="geometry" />
        </mxCell>
        <mxCell id="04_Secdxe5MrCqDxStES-76" value="" style="rounded=0;whiteSpace=wrap;html=1;fontSize=20;fillColor=#0050ef;strokeColor=#001DBC;fillStyle=hatch;fontColor=#ffffff;" vertex="1" parent="1">
          <mxGeometry x="1060" y="330" width="20" height="90" as="geometry" />
        </mxCell>
        <mxCell id="04_Secdxe5MrCqDxStES-77" value="" style="rounded=0;whiteSpace=wrap;html=1;fontSize=20;fillColor=#008a00;strokeColor=#005700;fillStyle=hatch;fontColor=#ffffff;" vertex="1" parent="1">
          <mxGeometry x="1090" y="330" width="20" height="90" as="geometry" />
        </mxCell>
        <mxCell id="04_Secdxe5MrCqDxStES-78" value="" style="rounded=0;whiteSpace=wrap;html=1;fontSize=20;fillColor=#6a00ff;strokeColor=#3700CC;fillStyle=hatch;fontColor=#ffffff;" vertex="1" parent="1">
          <mxGeometry x="1120" y="330" width="20" height="90" as="geometry" />
        </mxCell>
        <mxCell id="04_Secdxe5MrCqDxStES-79" value="(k=2, m=2)" style="text;html=1;strokeColor=none;fillColor=none;align=center;verticalAlign=middle;whiteSpace=wrap;rounded=0;fillStyle=auto;fontSize=20;" vertex="1" parent="1">
          <mxGeometry x="1020" y="440" width="130" height="30" as="geometry" />
        </mxCell>
        <mxCell id="04_Secdxe5MrCqDxStES-80" value="fragment1" style="text;html=1;strokeColor=none;fillColor=none;align=center;verticalAlign=middle;whiteSpace=wrap;rounded=0;fillStyle=auto;fontSize=20;" vertex="1" parent="1">
          <mxGeometry x="1032.5" y="580" width="130" height="30" as="geometry" />
        </mxCell>
        <mxCell id="04_Secdxe5MrCqDxStES-81" value="" style="rounded=0;whiteSpace=wrap;html=1;fontSize=20;fillColor=#008a00;strokeColor=#005700;fillStyle=hatch;fontColor=#ffffff;" vertex="1" parent="1">
          <mxGeometry x="1082.5" y="630" width="20" height="90" as="geometry" />
        </mxCell>
        <mxCell id="04_Secdxe5MrCqDxStES-82" value="fragment2" style="text;html=1;strokeColor=none;fillColor=none;align=center;verticalAlign=middle;whiteSpace=wrap;rounded=0;fillStyle=auto;fontSize=20;" vertex="1" parent="1">
          <mxGeometry x="1025" y="720" width="135" height="30" as="geometry" />
        </mxCell>
        <mxCell id="04_Secdxe5MrCqDxStES-88" value="" style="rounded=0;whiteSpace=wrap;html=1;fontSize=20;fillColor=#0050ef;strokeColor=#001DBC;fillStyle=hatch;fontColor=#ffffff;" vertex="1" parent="1">
          <mxGeometry x="1082.5" y="490" width="20" height="90" as="geometry" />
        </mxCell>
        <mxCell id="04_Secdxe5MrCqDxStES-91" value="" style="curved=1;endArrow=classic;html=1;rounded=0;fontSize=26;exitX=1;exitY=0.5;exitDx=0;exitDy=0;" edge="1" parent="1" source="04_Secdxe5MrCqDxStES-78">
          <mxGeometry width="50" height="50" relative="1" as="geometry">
            <mxPoint x="1150" y="390" as="sourcePoint" />
            <mxPoint x="1170" y="820" as="targetPoint" />
            <Array as="points">
              <mxPoint x="1293.24" y="418.87" />
            </Array>
          </mxGeometry>
        </mxCell>
        <mxCell id="04_Secdxe5MrCqDxStES-92" value="" style="rounded=0;whiteSpace=wrap;html=1;fontSize=20;fillColor=#6a00ff;strokeColor=#3700CC;fillStyle=hatch;fontColor=#ffffff;" vertex="1" parent="1">
          <mxGeometry x="1042.5" y="775" width="20" height="90" as="geometry" />
        </mxCell>
        <mxCell id="04_Secdxe5MrCqDxStES-93" value="fragment3" style="text;html=1;strokeColor=none;fillColor=none;align=center;verticalAlign=middle;whiteSpace=wrap;rounded=0;fillStyle=auto;fontSize=20;" vertex="1" parent="1">
          <mxGeometry x="1032.5" y="870" width="135" height="30" as="geometry" />
        </mxCell>
        <mxCell id="04_Secdxe5MrCqDxStES-94" value="message 1 arrives later" style="text;html=1;strokeColor=none;fillColor=none;align=center;verticalAlign=middle;whiteSpace=wrap;rounded=0;fontSize=20;" vertex="1" parent="1">
          <mxGeometry x="1190" y="780" width="132.5" height="30" as="geometry" />
        </mxCell>
        <mxCell id="04_Secdxe5MrCqDxStES-95" value="" style="shape=singleArrow;direction=north;whiteSpace=wrap;html=1;fillStyle=auto;fontSize=26;fillColor=#fa6800;rotation=89;fontColor=#000000;strokeColor=#C73500;" vertex="1" parent="1">
          <mxGeometry x="1090" y="798.86" width="20" height="42.28" as="geometry" />
        </mxCell>
        <mxCell id="04_Secdxe5MrCqDxStES-96" value="" style="rounded=0;whiteSpace=wrap;html=1;fontSize=20;fillColor=#e1d5e7;strokeColor=#9673a6;fillStyle=auto;" vertex="1" parent="1">
          <mxGeometry x="1130" y="775" width="20" height="90" as="geometry" />
        </mxCell>
      </root>
    </mxGraphModel>
  </diagram>
</mxfile>
